<?xml version="1.0" encoding="utf-8"?>
<!-- Generator: Adobe Illustrator 18.1.1, SVG Export Plug-In . SVG Version: 6.00 Build 0)  -->
<svg version="1.1" xmlns="http://www.w3.org/2000/svg" xmlns:xlink="http://www.w3.org/1999/xlink" x="0px" y="0px"
	 viewBox="0 0 612 792" enable-background="new 0 0 612 792" xml:space="preserve">
<g id="Layer_1">
	<g>
		<defs>
			<rect id="SVGID_1_" x="147" y="11" width="300" height="300"/>
		</defs>
		<clipPath id="SVGID_2_">
			<use xlink:href="#SVGID_1_"  overflow="visible"/>
		</clipPath>
		<g clip-path="url(#SVGID_2_)">
			<path fill="#FFFFFF" d="M142.6,11c5-0.1,12.1,0.2,20.5,2.4c13.1,3.5,22.3,9.7,32.9,17c8.7,6,20.3,15,33.1,28
				c19.5-8.9,36.7-13,50-15.1c26.9-4.1,47.6-1.1,54.3,0c16.7,2.8,30.6,7.7,40.8,12.1c16.8-18,31-27.4,39.6-32.3
				c7.8-4.4,13.4-6.4,15.9-7.3c10.5-3.5,19.5-4.2,25.8-4c3.6,9.3,7.8,22.7,10,39.6c3.8,29.5-0.7,53.7-3.8,66.3
				c5.5,5.6,14,15.7,20.5,31.8c2.1,5.3,5.9,16.4,8.4,38.1c1.8,16.1,3.3,43.1-2.5,77.3C367,268,246.1,271,125.1,274.1
				c-4.1-8.8-19.3-43.8-13.4-84.2c3.3-22.7,12.5-41.9,15-46.8c4.4-8.8,8.9-15.5,12.3-20.2c-3.6-15.4-8-41.9-4.4-73.9
				C136.3,33.8,139.5,21,142.6,11z"/>
		</g>
		<g clip-path="url(#SVGID_2_)">
			<path fill="#D1C3E0" d="M150.5,71.8c4.7-0.1,11.5,0.2,19.5,2.3c12.5,3.3,21.2,9.2,31.2,16.2c8.3,5.8,19.3,14.3,31.4,26.8
				c18.5-8.5,34.9-12.5,47.5-14.4c25.5-4,45.2-1.1,51.6,0c15.9,2.7,29.1,7.4,38.8,11.6C386.5,97,400,88,408.2,83.3
				c7.4-4.2,12.7-6.2,15.1-7c10-3.4,18.6-4,24.5-3.9c3.5,8.9,7.4,21.7,9.5,37.9c3.6,28.2-0.7,51.3-3.6,63.4
				c5.3,5.3,13.3,15,19.4,30.5c2,5,5.6,15.7,8,36.4c1.7,15.4,3.1,41.3-2.4,73.9c-114.9,2.9-229.8,5.9-344.7,8.8
				c-3.9-8.4-18.3-41.9-12.7-80.5c3.1-21.7,11.9-40,14.2-44.7c4.2-8.5,8.4-14.9,11.7-19.3c-3.4-14.7-7.6-40.1-4.2-70.7
				C144.6,93.5,147.5,81.3,150.5,71.8z"/>
		</g>
		<g clip-path="url(#SVGID_2_)">
			<path fill="#B29DCB" d="M157.3,115.3c4.4-0.1,10.7,0.2,18.1,2c11.6,2.8,19.6,7.9,29,13.9c7.7,4.9,17.9,12.2,29.1,22.9
				c17.1-7.2,32.3-10.6,44-12.3c23.7-3.4,41.9-0.9,47.8,0c14.7,2.3,26.9,6.3,35.9,9.9c14.8-14.7,27.3-22.4,34.9-26.4
				c6.9-3.6,11.8-5.3,14-5.9c9.2-2.9,17.2-3.4,22.7-3.3c3.2,7.6,6.9,18.6,8.8,32.3c3.3,24.1-0.6,43.9-3.4,54.1
				c4.9,4.6,12.4,12.9,18,26c1.8,4.3,5.2,13.4,7.4,31.1c1.6,13.1,2.9,35.2-2.2,63.1c-106.5,2.5-213,5-319.5,7.5
				c-3.6-7.2-17-35.8-11.8-68.8c2.9-18.6,11-34.2,13.2-38.2c3.9-7.2,7.8-12.7,10.9-16.5c-3.2-12.6-7-34.2-3.9-60.4
				C151.8,133.9,154.5,123.4,157.3,115.3z"/>
		</g>
		<g clip-path="url(#SVGID_2_)">
			<path fill="#673695" d="M168.8,146.3c4-0.1,9.8,0.1,16.5,1.7c10.6,2.4,17.9,6.6,26.5,11.6c7,4.1,16.3,10.2,26.6,19.1
				c15.7-6,29.5-8.9,40.2-10.3c21.6-2.8,38.3-0.8,43.7,0c13.4,1.9,24.6,5.2,32.8,8.3c13.6-12.3,25-18.7,31.9-22
				c6.3-3,10.8-4.4,12.8-5c8.4-2.4,15.7-2.8,20.8-2.8c2.9,6.4,6.3,15.5,8,27c3,20.1-0.6,36.6-3.1,45.1c4.5,3.8,11.3,10.7,16.5,21.7
				c1.7,3.6,4.8,11.2,6.7,25.9c1.5,11,2.7,29.4-2,52.6c-98.6,2.1-197.1,4.2-295.7,6.3c-3.6-8.4-12-30.9-7-57.4
				c3.1-16.5,10.4-29.1,12-31.9c3.5-6,7.1-10.6,9.9-13.8c-2.9-10.5-6.4-28.6-3.5-50.4C163.8,161.8,166.3,153.1,168.8,146.3z"/>
		</g>
		<g clip-path="url(#SVGID_2_)">
			<linearGradient id="SVGID_3_" gradientUnits="userSpaceOnUse" x1="297" y1="11" x2="297" y2="311">
				<stop  offset="0" style="stop-color:#2484C6"/>
				<stop  offset="1" style="stop-color:#2484C6;stop-opacity:0"/>
			</linearGradient>
			<rect x="147" y="11" fill="url(#SVGID_3_)" width="300" height="300"/>
		</g>
	</g>
	<g>
		<defs>
			<rect id="SVGID_4_" x="147" y="311" width="300" height="300"/>
		</defs>
		<clipPath id="SVGID_5_">
			<use xlink:href="#SVGID_4_"  overflow="visible"/>
		</clipPath>
		<g clip-path="url(#SVGID_5_)">
			<path fill="#FFFFFF" d="M451.4,611c-5,0.1-12.1-0.2-20.5-2.4c-13.1-3.5-22.3-9.7-32.9-17c-8.7-6-20.3-15-33.1-28
				c-19.5,8.9-36.7,13-50,15.1c-26.9,4.1-47.6,1.1-54.3,0c-16.7-2.8-30.6-7.7-40.8-12.1c-16.8,18-31,27.4-39.6,32.3
				c-7.8,4.4-13.4,6.4-15.9,7.3c-10.5,3.5-19.5,4.2-25.8,4c-3.6-9.3-7.8-22.7-10-39.6c-3.8-29.5,0.7-53.7,3.8-66.3
				c-5.5-5.6-14-15.7-20.5-31.8c-2.1-5.3-5.9-16.4-8.4-38.1c-1.8-16.1-3.3-43.1,2.5-77.3c120.9-3.1,241.9-6.2,362.8-9.2
				c4.1,8.8,19.3,43.8,13.4,84.2c-3.3,22.7-12.5,41.9-15,46.8c-4.4,8.8-8.9,15.5-12.3,20.2c3.6,15.4,8,41.9,4.4,73.9
				C457.7,588.2,454.5,601,451.4,611z"/>
		</g>
		<g clip-path="url(#SVGID_5_)">
			<path fill="#D1C3E0" d="M443.5,550.2c-4.7,0.1-11.5-0.2-19.5-2.3c-12.5-3.3-21.2-9.2-31.2-16.2c-8.3-5.8-19.3-14.3-31.4-26.8
				c-18.5,8.5-34.9,12.5-47.5,14.4c-25.5,4-45.2,1.1-51.6,0c-15.9-2.7-29.1-7.4-38.8-11.6c-16,17.2-29.5,26.2-37.6,30.9
				c-7.4,4.2-12.7,6.2-15.1,7c-10,3.4-18.6,4-24.5,3.9c-3.5-8.9-7.4-21.7-9.5-37.9c-3.6-28.2,0.7-51.3,3.6-63.4
				c-5.3-5.3-13.3-15-19.4-30.5c-2-5-5.6-15.7-8-36.4c-1.7-15.4-3.1-41.3,2.4-73.9c114.9-2.9,229.8-5.9,344.7-8.8
				c3.9,8.4,18.3,41.9,12.7,80.5c-3.1,21.7-11.9,40-14.2,44.7c-4.2,8.5-8.4,14.9-11.7,19.3c3.4,14.7,7.6,40.1,4.2,70.7
				C449.4,528.5,446.5,540.7,443.5,550.2z"/>
		</g>
		<g clip-path="url(#SVGID_5_)">
			<path fill="#B29DCB" d="M436.7,506.7c-4.4,0.1-10.7-0.2-18.1-2c-11.6-2.8-19.6-7.9-29-13.9c-7.7-4.9-17.9-12.2-29.1-22.9
				c-17.1,7.2-32.3,10.6-44,12.3c-23.7,3.4-41.9,0.9-47.8,0c-14.7-2.3-26.9-6.3-35.9-9.9c-14.8,14.7-27.3,22.4-34.9,26.4
				c-6.9,3.6-11.8,5.3-14,5.9c-9.2,2.9-17.2,3.4-22.7,3.3c-3.2-7.6-6.9-18.6-8.8-32.3c-3.3-24.1,0.6-43.9,3.4-54.1
				c-4.9-4.6-12.4-12.9-18-26c-1.8-4.3-5.2-13.4-7.4-31.1c-1.6-13.1-2.9-35.2,2.2-63.1c106.5-2.5,213-5,319.5-7.5
				c3.6,7.2,17,35.8,11.8,68.8c-2.9,18.6-11,34.2-13.2,38.2c-3.9,7.2-7.8,12.7-10.9,16.5c3.2,12.6,7,34.2,3.9,60.4
				C442.2,488.1,439.5,498.6,436.7,506.7z"/>
		</g>
		<g clip-path="url(#SVGID_5_)">
			<path fill="#673695" d="M425.2,475.7c-4,0.1-9.8-0.1-16.5-1.7c-10.6-2.4-17.9-6.6-26.5-11.6c-7-4.1-16.3-10.2-26.6-19.1
				c-15.7,6-29.5,8.9-40.2,10.3c-21.6,2.8-38.3,0.8-43.7,0c-13.4-1.9-24.6-5.2-32.8-8.3c-13.6,12.3-25,18.7-31.9,22
				c-6.3,3-10.8,4.4-12.8,5c-8.4,2.4-15.7,2.8-20.8,2.8c-2.9-6.4-6.3-15.5-8-27c-3-20.1,0.6-36.6,3.1-45.1
				c-4.5-3.8-11.3-10.7-16.5-21.7c-1.7-3.6-4.8-11.2-6.7-25.9c-1.5-11-2.7-29.4,2-52.6c98.6-2.1,197.1-4.2,295.7-6.3
				c3.6,8.4,12,30.9,7,57.4c-3.1,16.5-10.4,29.1-12,31.9c-3.5,6-7.1,10.6-9.9,13.8c2.9,10.5,6.4,28.6,3.5,50.4
				C430.2,460.2,427.7,468.9,425.2,475.7z"/>
		</g>
		<g clip-path="url(#SVGID_5_)">
			
				<linearGradient id="SVGID_6_" gradientUnits="userSpaceOnUse" x1="-55" y1="345" x2="-55" y2="645" gradientTransform="matrix(-1 0 0 -1 242 956)">
				<stop  offset="0" style="stop-color:#2484C6"/>
				<stop  offset="1" style="stop-color:#2484C6;stop-opacity:0"/>
			</linearGradient>
			<rect x="147" y="311" fill="url(#SVGID_6_)" width="300" height="300"/>
		</g>
	</g>
</g>
<g id="Layer_2">
</g>
</svg>
